<svg xmlns="http://www.w3.org/2000/svg"
 xmlns:xlink="http://www.w3.org/1999/xlink"
 width="1694px" height="1367px"  viewBox="0 0 1694 1367">
<path fill-rule="evenodd"  fill="#ffffff"
 d="M53.00002,273.99988 C53.00002,273.99988 176.6251,214.68439 324.99994,275.99963 C473.3748,337.31512 631.69885,334.66913 718.0,263.9997 C1038.6991,1.3890381 954.53503,390.6313 1369.9999,231.99982 C1369.9999,231.99982 1558.0421,179.67578 1693.0001,270.99963 C1693.0001,270.99963 1693.0001,1195.9996 1693.0001,1195.9996 C1693.0001,1195.9996 1664.5684,1161.6025 1525.0,1048.9998 C1425.6078,968.8109 1396.8696,903.52454 1106.0,1082.9999 C929.08704,1192.1603 817.0463,1018.0847 544.99994,1151.9998 C397.5263,1224.5938 386.52768,1365.398 171.99997,1280.9998 C1.0353546,1213.7401 53.00002,1134.9996 53.00002,1134.9996 C53.00002,1134.9996 53.00002,273.99988 53.00002,273.99988 Z"/>
</svg>